<svg width="20" height="21" viewBox="0 0 20 21" fill="none" xmlns="http://www.w3.org/2000/svg">
<path fill-rule="evenodd" clip-rule="evenodd" d="M1.5625 10.5C1.5625 10.2514 1.66127 10.0129 1.83709 9.83709C2.0129 9.66128 2.25136 9.56251 2.5 9.56251H15.2375L11.8375 6.16251C11.6719 5.98479 11.5817 5.74973 11.586 5.50685C11.5903 5.26398 11.6887 5.03225 11.8605 4.86048C12.0322 4.68871 12.264 4.59032 12.5068 4.58604C12.7497 4.58175 12.9848 4.67191 13.1625 4.83751L18.1625 9.83751C18.3381 10.0133 18.4367 10.2516 18.4367 10.5C18.4367 10.7484 18.3381 10.9867 18.1625 11.1625L13.1625 16.1625C13.0767 16.2546 12.9732 16.3285 12.8582 16.3797C12.7432 16.431 12.619 16.4585 12.4932 16.4607C12.3673 16.463 12.2422 16.4398 12.1255 16.3927C12.0088 16.3455 11.9027 16.2753 11.8137 16.1863C11.7247 16.0973 11.6545 15.9912 11.6073 15.8745C11.5602 15.7578 11.537 15.6327 11.5393 15.5069C11.5415 15.381 11.569 15.2568 11.6203 15.1418C11.6715 15.0268 11.7454 14.9233 11.8375 14.8375L15.2375 11.4375H2.5C2.25136 11.4375 2.0129 11.3387 1.83709 11.1629C1.66127 10.9871 1.5625 10.7486 1.5625 10.5Z" fill="#F9FAFB"/>
</svg>
