<svg width="25" height="24" viewBox="0 0 25 24" fill="none" xmlns="http://www.w3.org/2000/svg">
<g clip-path="url(#clip0_45_3)">
<rect width="24" height="24" transform="translate(0.5)" fill="white"/>
<path fill-rule="evenodd" clip-rule="evenodd" d="M14 2.25H11C10.8011 2.25 10.6103 2.32902 10.4697 2.46967C10.329 2.61032 10.25 2.80109 10.25 3V4.5H14.75V3C14.75 2.80109 14.671 2.61032 14.5303 2.46967C14.3897 2.32902 14.1989 2.25 14 2.25ZM8 3V4.5C6.80653 4.5 5.66193 4.97411 4.81802 5.81802C3.97411 6.66193 3.5 7.80653 3.5 9V18C3.5 19.1935 3.97411 20.3381 4.81802 21.182C5.66193 22.0259 6.80653 22.5 8 22.5H17C18.1935 22.5 19.3381 22.0259 20.182 21.182C21.0259 20.3381 21.5 19.1935 21.5 18V9C21.5 7.80653 21.0259 6.66193 20.182 5.81802C19.3381 4.97411 18.1935 4.5 17 4.5V3C17 2.20435 16.6839 1.44129 16.1213 0.87868C15.5587 0.316071 14.7956 0 14 0L11 0C10.2044 0 9.44129 0.316071 8.87868 0.87868C8.31607 1.44129 8 2.20435 8 3ZM14.75 6.75H17C17.5967 6.75 18.169 6.98705 18.591 7.40901C19.0129 7.83097 19.25 8.40326 19.25 9V18C19.25 18.5967 19.0129 19.169 18.591 19.591C18.169 20.0129 17.5967 20.25 17 20.25H8C7.40326 20.25 6.83097 20.0129 6.40901 19.591C5.98705 19.169 5.75 18.5967 5.75 18V9C5.75 8.40326 5.98705 7.83097 6.40901 7.40901C6.83097 6.98705 7.40326 6.75 8 6.75H14.75ZM9.125 9C8.82663 9 8.54048 9.11853 8.3295 9.3295C8.11853 9.54048 8 9.82663 8 10.125C8 10.4234 8.11853 10.7095 8.3295 10.9205C8.54048 11.1315 8.82663 11.25 9.125 11.25H15.875C16.1734 11.25 16.4595 11.1315 16.6705 10.9205C16.8815 10.7095 17 10.4234 17 10.125C17 9.82663 16.8815 9.54048 16.6705 9.3295C16.4595 9.11853 16.1734 9 15.875 9H9.125Z" fill="black"/>
</g>
<defs>
<clipPath id="clip0_45_3">
<rect width="24" height="24" fill="white" transform="translate(0.5)"/>
</clipPath>
</defs>
</svg>
