<svg width="25" height="24" viewBox="0 0 25 24" fill="none" xmlns="http://www.w3.org/2000/svg">
<path fill-rule="evenodd" clip-rule="evenodd" d="M8 20.25H17C17.5967 20.25 18.169 20.0129 18.591 19.591C19.0129 19.169 19.25 18.5967 19.25 18V10.8645C19.2499 10.5689 19.1916 10.2762 19.0784 10.0031C18.9651 9.73 18.7992 9.48191 18.59 9.273L13.7285 4.4085C13.3067 3.98697 12.7348 3.75013 12.1385 3.75H8C7.40326 3.75 6.83097 3.98705 6.40901 4.40901C5.98705 4.83097 5.75 5.40326 5.75 6V18C5.75 18.5967 5.98705 19.169 6.40901 19.591C6.83097 20.0129 7.40326 20.25 8 20.25ZM21.5 10.8645C21.5001 10.2733 21.3837 9.68797 21.1574 9.14182C20.9312 8.59567 20.5996 8.09945 20.1815 7.6815L15.32 2.82C14.902 2.40148 14.4056 2.06947 13.8592 1.84297C13.3127 1.61648 12.727 1.49993 12.1355 1.5H8C6.80653 1.5 5.66193 1.97411 4.81802 2.81802C3.97411 3.66193 3.5 4.80653 3.5 6V18C3.5 19.1935 3.97411 20.3381 4.81802 21.182C5.66193 22.0259 6.80653 22.5 8 22.5H17C18.1935 22.5 19.3381 22.0259 20.182 21.182C21.0259 20.3381 21.5 19.1935 21.5 18V10.8645ZM8 12.375C8 12.0766 8.11853 11.7905 8.3295 11.5795C8.54048 11.3685 8.82663 11.25 9.125 11.25H15.875C16.1734 11.25 16.4595 11.3685 16.6705 11.5795C16.8815 11.7905 17 12.0766 17 12.375C17 12.6734 16.8815 12.9595 16.6705 13.1705C16.4595 13.3815 16.1734 13.5 15.875 13.5H9.125C8.82663 13.5 8.54048 13.3815 8.3295 13.1705C8.11853 12.9595 8 12.6734 8 12.375ZM9.125 15.75C8.82663 15.75 8.54048 15.8685 8.3295 16.0795C8.11853 16.2905 8 16.5766 8 16.875C8 17.1734 8.11853 17.4595 8.3295 17.6705C8.54048 17.8815 8.82663 18 9.125 18H12.875C13.1734 18 13.4595 17.8815 13.6705 17.6705C13.8815 17.4595 14 17.1734 14 16.875C14 16.5766 13.8815 16.2905 13.6705 16.0795C13.4595 15.8685 13.1734 15.75 12.875 15.75H9.125Z" fill="black"/>
</svg>
