<svg width="28" height="29" viewBox="0 0 28 29" fill="none" xmlns="http://www.w3.org/2000/svg">
<path fill-rule="evenodd" clip-rule="evenodd" d="M17.5 8.375C17.5 9.30326 17.1313 10.1935 16.4749 10.8499C15.8185 11.5063 14.9283 11.875 14 11.875C13.0717 11.875 12.1815 11.5063 11.5251 10.8499C10.8687 10.1935 10.5 9.30326 10.5 8.375C10.5 7.44674 10.8687 6.5565 11.5251 5.90013C12.1815 5.24375 13.0717 4.875 14 4.875C14.9283 4.875 15.8185 5.24375 16.4749 5.90013C17.1313 6.5565 17.5 7.44674 17.5 8.375ZM20.125 8.375C20.125 9.99945 19.4797 11.5574 18.331 12.706C17.1824 13.8547 15.6245 14.5 14 14.5C12.3755 14.5 10.8176 13.8547 9.66897 12.706C8.52031 11.5574 7.875 9.99945 7.875 8.375C7.875 6.75055 8.52031 5.19263 9.66897 4.04397C10.8176 2.89531 12.3755 2.25 14 2.25C15.6245 2.25 17.1824 2.89531 18.331 4.04397C19.4797 5.19263 20.125 6.75055 20.125 8.375ZM4.375 22.375C4.375 22.018 4.76 20.9593 6.685 19.8218C8.4665 18.77 11.06 18 14 18C16.94 18 19.5335 18.77 21.315 19.8218C23.24 20.9593 23.625 22.018 23.625 22.375C23.625 22.8391 23.4406 23.2842 23.1124 23.6124C22.7842 23.9406 22.3391 24.125 21.875 24.125H6.125C5.66087 24.125 5.21575 23.9406 4.88756 23.6124C4.55937 23.2842 4.375 22.8391 4.375 22.375ZM14 15.375C7.2625 15.375 1.75 18.875 1.75 22.375C1.75 23.5353 2.21094 24.6481 3.03141 25.4686C3.85188 26.2891 4.96468 26.75 6.125 26.75H21.875C23.0353 26.75 24.1481 26.2891 24.9686 25.4686C25.7891 24.6481 26.25 23.5353 26.25 22.375C26.25 18.875 20.7375 15.375 14 15.375Z" fill="#4B5563"/>
</svg>
