<svg width="29" height="29" viewBox="0 0 29 29" fill="none" xmlns="http://www.w3.org/2000/svg">
<path fill-rule="evenodd" clip-rule="evenodd" d="M6.35417 5.28334C5.95966 5.28334 5.58131 5.44006 5.30235 5.71902C5.02339 5.99798 4.86667 6.37633 4.86667 6.77084V9.54167C4.86667 10.2504 4.29211 10.825 3.58334 10.825C2.87457 10.825 2.30001 10.2504 2.30001 9.54167V6.77084C2.30001 5.69561 2.72714 4.66442 3.48744 3.90411C4.24775 3.14381 5.27894 2.71667 6.35417 2.71667H9.12501C9.83377 2.71667 10.4083 3.29124 10.4083 4.00001C10.4083 4.70877 9.83377 5.28334 9.12501 5.28334H6.35417ZM18.925 4.00001C18.925 3.29124 19.4996 2.71667 20.2083 2.71667H22.9792C24.0544 2.71667 25.0856 3.14381 25.8459 3.90411C26.6062 4.66442 27.0333 5.69561 27.0333 6.77084V9.54167C27.0333 10.2504 26.4588 10.825 25.75 10.825C25.0412 10.825 24.4667 10.2504 24.4667 9.54167V6.77084C24.4667 6.37633 24.31 5.99798 24.031 5.71902C23.752 5.44006 23.3737 5.28334 22.9792 5.28334H20.2083C19.4996 5.28334 18.925 4.70877 18.925 4.00001ZM9.34004 15.0833C11.3509 17.661 13.1372 18.6493 14.6667 18.6493C16.1961 18.6493 17.9824 17.661 19.9933 15.0833C17.9824 12.5057 16.1961 11.5174 14.6667 11.5174C13.1372 11.5174 11.3509 12.5057 9.34004 15.0833ZM14.6667 8.9507C17.6159 8.9507 20.2593 11.0067 22.6381 14.3375C22.9567 14.7837 22.9567 15.383 22.6381 15.8292C20.2593 19.16 17.6159 21.216 14.6667 21.216C11.7174 21.216 9.07401 19.16 6.69524 15.8292C6.3766 15.383 6.3766 14.7837 6.69524 14.3375C9.07401 11.0067 11.7174 8.9507 14.6667 8.9507ZM13.3695 15.0833C13.3695 14.3746 13.9441 13.8 14.6528 13.8H14.6667C15.3754 13.8 15.95 14.3746 15.95 15.0833C15.95 15.7921 15.3754 16.3667 14.6667 16.3667H14.6528C13.9441 16.3667 13.3695 15.7921 13.3695 15.0833ZM3.58334 19.3417C4.29211 19.3417 4.86667 19.9162 4.86667 20.625V23.3958C4.86667 23.7903 5.02339 24.1687 5.30235 24.4477C5.58131 24.7266 5.95966 24.8833 6.35417 24.8833H9.12501C9.83377 24.8833 10.4083 25.4579 10.4083 26.1667C10.4083 26.8754 9.83377 27.45 9.12501 27.45H6.35417C5.27894 27.45 4.24775 27.0229 3.48744 26.2626C2.72714 25.5023 2.30001 24.4711 2.30001 23.3958V20.625C2.30001 19.9162 2.87457 19.3417 3.58334 19.3417ZM25.75 19.3417C26.4588 19.3417 27.0333 19.9162 27.0333 20.625V23.3958C27.0333 24.4711 26.6062 25.5023 25.8459 26.2626C25.0856 27.0229 24.0544 27.45 22.9792 27.45H20.2083C19.4996 27.45 18.925 26.8754 18.925 26.1667C18.925 25.4579 19.4996 24.8833 20.2083 24.8833H22.9792C23.3737 24.8833 23.752 24.7266 24.031 24.4477C24.31 24.1687 24.4667 23.7903 24.4667 23.3958V20.625C24.4667 19.9162 25.0412 19.3417 25.75 19.3417Z" fill="#4B5563"/>
</svg>
