<svg width="29" height="29" viewBox="0 0 29 29" fill="none" xmlns="http://www.w3.org/2000/svg">
<path fill-rule="evenodd" clip-rule="evenodd" d="M9.08334 24.125H19.5833C20.2795 24.125 20.9472 23.8484 21.4395 23.3562C21.9318 22.8639 22.2083 22.1962 22.2083 21.5V13.1753C22.2083 12.8303 22.1402 12.4888 22.0081 12.1703C21.876 11.8517 21.6824 11.5622 21.4383 11.3185L15.7666 5.64325C15.2745 5.15147 14.6073 4.87515 13.9116 4.875H9.08334C8.38715 4.875 7.71947 5.15156 7.22719 5.64384C6.73491 6.13613 6.45834 6.80381 6.45834 7.5V21.5C6.45834 22.1962 6.73491 22.8639 7.22719 23.3562C7.71947 23.8484 8.38715 24.125 9.08334 24.125ZM24.8333 13.1753C24.8334 12.4856 24.6976 11.8026 24.4337 11.1655C24.1697 10.5283 23.7828 9.94935 23.2951 9.46175L17.6233 3.79C17.1357 3.30173 16.5565 2.91439 15.919 2.65014C15.2815 2.38589 14.5982 2.24992 13.9081 2.25H9.08334C7.69096 2.25 6.3556 2.80312 5.37103 3.78769C4.38647 4.77226 3.83334 6.10761 3.83334 7.5V21.5C3.83334 22.8924 4.38647 24.2277 5.37103 25.2123C6.3556 26.1969 7.69096 26.75 9.08334 26.75H19.5833C20.9757 26.75 22.3111 26.1969 23.2957 25.2123C24.2802 24.2277 24.8333 22.8924 24.8333 21.5V13.1753ZM9.08334 14.9375C9.08334 14.5894 9.22162 14.2556 9.46777 14.0094C9.71391 13.7633 10.0477 13.625 10.3958 13.625H18.2708C18.6189 13.625 18.9528 13.7633 19.1989 14.0094C19.4451 14.2556 19.5833 14.5894 19.5833 14.9375C19.5833 15.2856 19.4451 15.6194 19.1989 15.8656C18.9528 16.1117 18.6189 16.25 18.2708 16.25H10.3958C10.0477 16.25 9.71391 16.1117 9.46777 15.8656C9.22162 15.6194 9.08334 15.2856 9.08334 14.9375ZM10.3958 18.875C10.0477 18.875 9.71391 19.0133 9.46777 19.2594C9.22162 19.5056 9.08334 19.8394 9.08334 20.1875C9.08334 20.5356 9.22162 20.8694 9.46777 21.1156C9.71391 21.3617 10.0477 21.5 10.3958 21.5H14.7708C15.1189 21.5 15.4528 21.3617 15.6989 21.1156C15.9451 20.8694 16.0833 20.5356 16.0833 20.1875C16.0833 19.8394 15.9451 19.5056 15.6989 19.2594C15.4528 19.0133 15.1189 18.875 14.7708 18.875H10.3958Z" fill="#4B5563"/>
</svg>
