<svg width="24" height="24" viewBox="0 0 24 24" fill="none" xmlns="http://www.w3.org/2000/svg">
<path fill-rule="evenodd" clip-rule="evenodd" d="M15.795 4.45499C16.0057 4.66592 16.124 4.95186 16.124 5.24999C16.124 5.54811 16.0057 5.83405 15.795 6.04499L9.83999 12L15.795 17.955C15.9055 18.058 15.9942 18.1822 16.0557 18.3202C16.1171 18.4582 16.1502 18.6071 16.1529 18.7582C16.1555 18.9093 16.1278 19.0593 16.0712 19.1994C16.0146 19.3395 15.9304 19.4667 15.8235 19.5735C15.7167 19.6804 15.5895 19.7646 15.4494 19.8212C15.3093 19.8778 15.1593 19.9055 15.0082 19.9029C14.8571 19.9002 14.7082 19.8671 14.5702 19.8057C14.4322 19.7442 14.308 19.6555 14.205 19.545L7.45499 12.795C7.24431 12.584 7.12598 12.2981 7.12598 12C7.12598 11.7019 7.24431 11.4159 7.45499 11.205L14.205 4.45499C14.4159 4.24431 14.7019 4.12598 15 4.12598C15.2981 4.12598 15.584 4.24431 15.795 4.45499Z" fill="black"/>
</svg>
