<svg width="24" height="24" viewBox="0 0 24 24" fill="none" xmlns="http://www.w3.org/2000/svg">
<path fill-rule="evenodd" clip-rule="evenodd" d="M6.99749 11.733L7.92749 7.08901C8.11764 6.14909 8.62705 5.30388 9.36933 4.69674C10.1116 4.08959 11.041 3.75788 12 3.75788C12.9589 3.75788 13.8884 4.08959 14.6307 4.69674C15.3729 5.30388 15.8823 6.14909 16.0725 7.08901L17.0025 11.733C17.2801 13.1193 17.9611 14.3926 18.96 15.393L19.251 15.6825C19.3582 15.7898 19.4347 15.9239 19.4727 16.0707C19.5106 16.2176 19.5086 16.3719 19.4668 16.5177C19.4251 16.6636 19.3451 16.7956 19.2351 16.9C19.1251 17.0045 18.9892 17.0777 18.8415 17.112L17.61 17.397C13.9185 18.249 10.0815 18.249 6.38999 17.397L5.15999 17.112C5.01212 17.0779 4.87605 17.0049 4.76592 16.9005C4.65578 16.7961 4.57559 16.6641 4.53366 16.5183C4.49173 16.3724 4.48958 16.218 4.52744 16.071C4.56531 15.9241 4.6418 15.7899 4.74899 15.6825L5.03999 15.393C6.0395 14.393 6.72062 13.1195 6.99749 11.733ZM4.79249 11.292L5.72099 6.64801C6.01296 5.19784 6.7979 3.89344 7.94248 2.95634C9.08706 2.01923 10.5207 1.5072 12 1.5072C13.4793 1.5072 14.9129 2.01923 16.0575 2.95634C17.2021 3.89344 17.987 5.19784 18.279 6.64801L19.209 11.292C19.398 12.243 19.866 13.116 20.5515 13.8015L20.8425 14.0925C21.2341 14.4837 21.5137 14.9726 21.6524 15.5085C21.7911 16.0443 21.7837 16.6075 21.6311 17.1395C21.4784 17.6716 21.1861 18.153 20.7844 18.5338C20.3827 18.9146 19.8864 19.1809 19.347 19.305L18.1155 19.59C17.064 19.83 16.0005 20.01 14.9355 20.127C14.7929 20.7996 14.4235 21.4029 13.8893 21.8357C13.355 22.2685 12.6883 22.5047 12.0007 22.5047C11.3132 22.5047 10.6465 22.2685 10.1122 21.8357C9.57796 21.4029 9.20862 20.7996 9.06599 20.127C7.99627 20.0106 6.93441 19.8308 5.88599 19.5885L4.65299 19.3035C4.11418 19.1788 3.61852 18.9123 3.2174 18.5316C2.81629 18.1508 2.52431 17.6697 2.37175 17.1381C2.21919 16.6065 2.21159 16.0438 2.34975 15.5083C2.48791 14.9728 2.7668 14.4839 3.15749 14.0925L3.44999 13.8C4.13549 13.1145 4.60349 12.24 4.79249 11.2905V11.292Z" fill="black"/>
</svg>
