<svg width="24" height="24" viewBox="0 0 24 24" fill="none" xmlns="http://www.w3.org/2000/svg">
<path d="M13.8672 5.589C13.8673 5.83428 13.819 6.07718 13.7252 6.30382C13.6315 6.53047 13.4939 6.73641 13.3205 6.90991C13.1472 7.08341 12.9413 7.22106 12.7147 7.31499C12.4881 7.40893 12.2453 7.45732 12 7.4574C11.7547 7.45748 11.5118 7.40925 11.2852 7.31545C11.0585 7.22166 10.8526 7.08415 10.6791 6.91076C10.5056 6.73737 10.3679 6.53151 10.274 6.30493C10.1801 6.07835 10.1317 5.83549 10.1316 5.5902C10.1314 5.09483 10.3281 4.61969 10.6782 4.26929C11.0284 3.9189 11.5034 3.72196 11.9988 3.7218C12.4942 3.72164 12.9693 3.91828 13.3197 4.26844C13.6701 4.61861 13.867 5.09363 13.8672 5.589Z" fill="black"/>
<path d="M12 13.8666C13.0312 13.8666 13.8672 13.0306 13.8672 11.9994C13.8672 10.9682 13.0312 10.1322 12 10.1322C10.9688 10.1322 10.1328 10.9682 10.1328 11.9994C10.1328 13.0306 10.9688 13.8666 12 13.8666Z" fill="black"/>
<path d="M12 20.2782C13.0312 20.2782 13.8672 19.4422 13.8672 18.411C13.8672 17.3798 13.0312 16.5438 12 16.5438C10.9688 16.5438 10.1328 17.3798 10.1328 18.411C10.1328 19.4422 10.9688 20.2782 12 20.2782Z" fill="black"/>
</svg>
