<svg width="20" height="20" viewBox="0 0 20 20" fill="none" xmlns="http://www.w3.org/2000/svg">
<path d="M19.8 10.2273C19.8 9.51819 19.7364 8.83639 19.6182 8.18179H10.2V12.05H15.5818C15.35 13.3 14.6455 14.3591 13.5864 15.0682V17.5773H16.8182C18.7091 15.8364 19.8 13.2727 19.8 10.2273Z" fill="#4285F4"/>
<path d="M10.2 20C12.9 20 15.1636 19.1045 16.8181 17.5773L13.5863 15.0682C12.6909 15.6682 11.5454 16.0227 10.2 16.0227C7.59541 16.0227 5.39091 14.2636 4.60451 11.9H1.26361V14.4909C2.90911 17.7591 6.29091 20 10.2 20Z" fill="#34A853"/>
<path d="M4.60451 11.9C4.40451 11.3 4.29091 10.6591 4.29091 9.99999C4.29091 9.34089 4.40451 8.69999 4.60451 8.09999V5.50909H1.26361C0.586412 6.85909 0.200012 8.38639 0.200012 9.99999C0.200012 11.6136 0.586412 13.1409 1.26361 14.4909L4.60451 11.9Z" fill="#FBBC04"/>
<path d="M10.2 3.9773C11.6681 3.9773 12.9863 4.4818 14.0227 5.4727L16.8909 2.6045C15.1591 0.9909 12.8954 0 10.2 0C6.29091 0 2.90911 2.2409 1.26361 5.5091L4.60451 8.1C5.39091 5.7364 7.59541 3.9773 10.2 3.9773Z" fill="#E94235"/>
</svg>
