<svg width="44" height="44" viewBox="0 0 44 44" fill="none" xmlns="http://www.w3.org/2000/svg">
<path d="M13.1111 6H9.55556C8.61256 6 7.70819 6.3746 7.0414 7.0414C6.3746 7.70819 6 8.61256 6 9.55556V13.1111M30.8889 6H34.4444C35.3874 6 36.2918 6.3746 36.9586 7.0414C37.6254 7.70819 38 8.61256 38 9.55556V13.1111M29.1111 14.8889V18.4444M14.8889 14.8889V18.4444M16.6667 29.1111C16.6667 29.1111 18.4444 30.8889 22 30.8889C25.5556 30.8889 27.3333 29.1111 27.3333 29.1111M22 14.8889V23.7778H20.2222M13.1111 38H9.55556C8.61256 38 7.70819 37.6254 7.0414 36.9586C6.3746 36.2918 6 35.3874 6 34.4444V30.8889M30.8889 38H34.4444C35.3874 38 36.2918 37.6254 36.9586 36.9586C37.6254 36.2918 38 35.3874 38 34.4444V30.8889" stroke="white" stroke-width="3" stroke-linecap="round" stroke-linejoin="round"/>
</svg>
